# xmcd CD database file
#
# Track frame offsets:
#	150
#	18456
#	45906
#	75290
#	94761
#	110206
#	130950
#	149646
#	165141
#	183388
#
# Disc length: 2822 seconds
#
# Revision: 0
# Processed by: cddbd v1.4PL0 Copyright (c) Steve Scherf et al.
# Submitted via: CDex 1.50
#
DISCID=790b040a
DTITLE=Rick DellaRatta - Jazz at Christmas Time!
DYEAR=2001
DGENRE=Jazz
TTITLE0=Winter Wonderland
TTITLE1=Christmas Song
TTITLE2=Santa Claus is Coming to Town
TTITLE3=The Little Drummer Boy
TTITLE4=Greensleeves
TTITLE5=Christmas Waltz
TTITLE6=Go Tell it on the Mountain
TTITLE7=Sleighride
TTITLE8=I'll Be Home for Christmas
TTITLE9=Have Yourself a Merry Little Christmas
EXTD=YEAR: 2001
EXTT0=
EXTT1=
EXTT2=
EXTT3=
EXTT4=
EXTT5=
EXTT6=
EXTT7=
EXTT8=
EXTT9=
PLAYORDER=
